<?xml version="1.0" encoding="UTF-8" standalone="no"?>
<!DOCTYPE svg PUBLIC "-//W3C//DTD SVG 1.1//EN" "http://www.w3.org/Graphics/SVG/1.1/DTD/svg11.dtd">
<svg width="100%" height="100%" viewBox="0 0 100 100" version="1.1" xmlns="http://www.w3.org/2000/svg" xmlns:xlink="http://www.w3.org/1999/xlink" xml:space="preserve" xmlns:serif="http://www.serif.com/" style="fill-rule:evenodd;clip-rule:evenodd;stroke-linecap:round;stroke-linejoin:round;stroke-miterlimit:1.5;">
    <g>
        <g transform="matrix(1.23998,-0.505186,-1.05439,4.0637,13.5513,-152.957)">
            <path d="M89.376,61.055L84.867,60.494" style="fill:none;stroke:rgb(255,160,0);stroke-width:0.28px;"/>
        </g>
        <g transform="matrix(1.23998,-0.505186,-1.05439,4.0637,-1.44869,-152.957)">
            <path d="M89.376,61.055L84.867,60.494" style="fill:none;stroke:rgb(255,160,0);stroke-width:0.28px;"/>
        </g>
        <g transform="matrix(0.505186,1.23998,-4.0637,-1.05439,252.957,-1.44869)">
            <path d="M89.376,61.055L84.867,60.494" style="fill:none;stroke:rgb(255,160,0);stroke-width:0.28px;"/>
        </g>
        <g transform="matrix(0.505186,1.23998,-4.0637,-1.05439,236.957,-1.94869)">
            <path d="M89.969,61.278L80.295,60.91" style="fill:none;stroke:rgb(255,96,0);stroke-width:0.28px;"/>
        </g>
        <g transform="matrix(0.505186,1.23998,-4.0637,-1.05439,236.957,-1.94869)">
            <path d="M76.786,56.783L76.442,59.596" style="fill:none;stroke:rgb(255,160,0);stroke-width:0.28px;"/>
        </g>
        <g transform="matrix(0.505186,1.23998,-4.0637,-1.05439,236.957,-1.94869)">
            <path d="M65.176,55.339L73.308,59.303" style="fill:none;stroke:rgb(0,255,87);stroke-width:0.28px;"/>
        </g>
        <g transform="matrix(0.505186,1.23998,-4.0637,-1.05439,236.957,-1.94869)">
            <path d="M82.276,64.11L79.201,62.4" style="fill:none;stroke:rgb(0,255,87);stroke-width:0.28px;"/>
        </g>
        <g transform="matrix(0.505186,1.23998,-4.0637,-1.05439,236.957,-1.94869)">
            <path d="M57.294,55.739L52.946,53.778" style="fill:none;stroke:rgb(0,255,87);stroke-width:0.28px;"/>
        </g>
        <g transform="matrix(0.505186,1.23998,-4.0637,-1.05439,236.957,-1.94869)">
            <path d="M71.583,61.91L73.802,61.368" style="fill:none;stroke:rgb(255,96,0);stroke-width:0.28px;"/>
        </g>
        <g transform="matrix(0.505186,1.23998,-4.0637,-1.05439,236.957,-1.94869)">
            <path d="M62.427,54.998L61.687,56.191" style="fill:none;stroke:rgb(0,255,87);stroke-width:0.28px;"/>
        </g>
        <g transform="matrix(-0.505186,1.23998,4.0637,-1.05439,-136.789,-1.94869)">
            <path d="M89.969,61.278L80.295,60.91" style="fill:none;stroke:rgb(255,160,0);stroke-width:0.28px;"/>
        </g>
        <g transform="matrix(-0.505186,1.23998,4.0637,-1.05439,-136.789,-1.94869)">
            <path d="M76.786,56.783L76.442,59.596" style="fill:none;stroke:rgb(255,96,0);stroke-width:0.28px;"/>
        </g>
        <g transform="matrix(-0.505186,1.23998,4.0637,-1.05439,-136.789,-1.94869)">
            <path d="M65.176,55.339L73.308,59.303" style="fill:none;stroke:rgb(0,255,87);stroke-width:0.28px;"/>
        </g>
        <g transform="matrix(-0.505186,1.23998,4.0637,-1.05439,-136.789,-1.94869)">
            <path d="M82.276,64.11L79.201,62.4" style="fill:none;stroke:rgb(0,255,87);stroke-width:0.28px;"/>
        </g>
        <g transform="matrix(-0.505186,1.23998,4.0637,-1.05439,-136.789,-1.94869)">
            <path d="M57.294,55.739L52.946,53.778" style="fill:none;stroke:rgb(0,255,87);stroke-width:0.28px;"/>
        </g>
        <g transform="matrix(-0.505186,1.23998,4.0637,-1.05439,-136.789,-1.94869)">
            <path d="M71.583,61.91L73.802,61.368" style="fill:none;stroke:rgb(255,96,0);stroke-width:0.28px;"/>
        </g>
        <g transform="matrix(-0.505186,1.23998,4.0637,-1.05439,-136.789,-1.94869)">
            <path d="M62.427,54.998L61.687,56.191" style="fill:none;stroke:rgb(0,255,87);stroke-width:0.28px;"/>
        </g>
        <g transform="matrix(1.23998,-0.505186,-1.05439,4.0637,-2.18404,-137.182)">
            <path d="M57.294,55.739L52.946,53.778" style="fill:none;stroke:rgb(0,255,87);stroke-width:0.28px;"/>
        </g>
        <g transform="matrix(1.23998,-0.505186,-1.05439,4.0637,-2.18404,-137.182)">
            <path d="M62.427,54.998L61.687,56.191" style="fill:none;stroke:rgb(0,255,87);stroke-width:0.28px;"/>
        </g>
        <g transform="matrix(1.23998,0.505186,-1.05439,-4.0637,-2.18404,236.564)">
            <path d="M57.294,55.739L52.946,53.778" style="fill:none;stroke:rgb(0,255,87);stroke-width:0.28px;"/>
        </g>
        <g transform="matrix(1.23998,0.505186,-1.05439,-4.0637,-2.18404,236.564)">
            <path d="M62.427,54.998L61.687,56.191" style="fill:none;stroke:rgb(0,255,87);stroke-width:0.28px;"/>
        </g>
        <g transform="matrix(-1.23998,0.505186,1.05439,-4.0637,101.949,237.564)">
            <path d="M57.294,55.739L52.946,53.778" style="fill:none;stroke:rgb(0,255,87);stroke-width:0.28px;"/>
        </g>
        <g transform="matrix(-1.23998,0.505186,1.05439,-4.0637,101.949,237.564)">
            <path d="M62.427,54.998L61.687,56.191" style="fill:none;stroke:rgb(0,255,87);stroke-width:0.28px;"/>
        </g>
        <g transform="matrix(-1.23998,-0.505186,1.05439,4.0637,101.949,-136.182)">
            <path d="M57.294,55.739L52.946,53.778" style="fill:none;stroke:rgb(0,255,87);stroke-width:0.28px;"/>
        </g>
        <g transform="matrix(-1.23998,-0.505186,1.05439,4.0637,101.949,-136.182)">
            <path d="M62.427,54.998L61.687,56.191" style="fill:none;stroke:rgb(0,255,87);stroke-width:0.28px;"/>
        </g>
        <g transform="matrix(0.505186,-1.23998,-4.0637,1.05439,236.957,101.949)">
            <path d="M89.969,61.278L80.295,60.91" style="fill:none;stroke:rgb(255,160,0);stroke-width:0.28px;"/>
        </g>
        <g transform="matrix(0.505186,-1.23998,-4.0637,1.05439,236.957,101.949)">
            <path d="M76.786,56.783L76.442,59.596" style="fill:none;stroke:rgb(255,96,0);stroke-width:0.28px;"/>
        </g>
        <g transform="matrix(0.505186,-1.23998,-4.0637,1.05439,236.957,101.949)">
            <path d="M65.176,55.339L73.308,59.303" style="fill:none;stroke:rgb(0,255,87);stroke-width:0.28px;"/>
        </g>
        <g transform="matrix(0.505186,-1.23998,-4.0637,1.05439,236.957,101.949)">
            <path d="M82.276,64.11L79.201,62.4" style="fill:none;stroke:rgb(0,255,87);stroke-width:0.28px;"/>
        </g>
        <g transform="matrix(0.505186,-1.23998,-4.0637,1.05439,236.957,101.949)">
            <path d="M57.294,55.739L52.946,53.778" style="fill:none;stroke:rgb(0,255,87);stroke-width:0.28px;"/>
        </g>
        <g transform="matrix(0.505186,-1.23998,-4.0637,1.05439,236.957,101.949)">
            <path d="M71.583,61.91L73.802,61.368" style="fill:none;stroke:rgb(255,96,0);stroke-width:0.28px;"/>
        </g>
        <g transform="matrix(0.505186,-1.23998,-4.0637,1.05439,236.957,101.949)">
            <path d="M62.427,54.998L61.687,56.191" style="fill:none;stroke:rgb(0,255,87);stroke-width:0.28px;"/>
        </g>
        <g transform="matrix(-0.505186,-1.23998,4.0637,1.05439,-136.789,101.949)">
            <path d="M89.969,61.278L80.295,60.91" style="fill:none;stroke:rgb(255,96,0);stroke-width:0.28px;"/>
        </g>
        <g transform="matrix(-0.505186,-1.23998,4.0637,1.05439,-136.789,101.949)">
            <path d="M76.786,56.783L76.442,59.596" style="fill:none;stroke:rgb(255,160,0);stroke-width:0.28px;"/>
        </g>
        <g transform="matrix(-0.505186,-1.23998,4.0637,1.05439,-136.789,101.949)">
            <path d="M65.176,55.339L73.308,59.303" style="fill:none;stroke:rgb(0,255,87);stroke-width:0.28px;"/>
        </g>
        <g transform="matrix(-0.505186,-1.23998,4.0637,1.05439,-136.789,101.949)">
            <path d="M82.276,64.11L79.201,62.4" style="fill:none;stroke:rgb(0,255,87);stroke-width:0.28px;"/>
        </g>
        <g transform="matrix(-0.505186,-1.23998,4.0637,1.05439,-136.789,101.949)">
            <path d="M57.294,55.739L52.946,53.778" style="fill:none;stroke:rgb(0,255,87);stroke-width:0.28px;"/>
        </g>
        <g transform="matrix(-0.505186,-1.23998,4.0637,1.05439,-136.789,101.949)">
            <path d="M71.583,61.91L73.802,61.368" style="fill:none;stroke:rgb(255,96,0);stroke-width:0.28px;"/>
        </g>
        <g transform="matrix(-0.505186,-1.23998,4.0637,1.05439,-136.789,101.949)">
            <path d="M62.427,54.998L61.687,56.191" style="fill:none;stroke:rgb(0,255,87);stroke-width:0.28px;"/>
        </g>
        <g transform="matrix(0.505186,1.23998,-4.0637,-1.05439,252.957,13.5513)">
            <path d="M89.376,61.055L84.867,60.494" style="fill:none;stroke:rgb(255,160,0);stroke-width:0.28px;"/>
        </g>
    </g>
    <g>
        <g transform="matrix(1.53081e-17,-0.25,0.25,1.53081e-17,42.5,67.5)">
            <circle cx="70" cy="30" r="20" style="fill:none;stroke:rgb(0,255,87);stroke-width:2.78px;"/>
        </g>
        <g transform="matrix(1.53081e-17,-0.25,0.25,1.53081e-17,27.5,67.5)">
            <circle cx="70" cy="30" r="20" style="fill:none;stroke:rgb(255,160,0);stroke-width:2.78px;"/>
        </g>
        <g transform="matrix(1.53081e-17,-0.25,0.25,1.53081e-17,11.5,67.5)">
            <circle cx="70" cy="30" r="20" style="fill:none;stroke:rgb(0,255,87);stroke-width:2.78px;"/>
        </g>
        <g transform="matrix(1.53081e-17,-0.25,0.25,1.53081e-17,-2.5,67.5)">
            <circle cx="70" cy="30" r="20" style="fill:none;stroke:rgb(0,255,87);stroke-width:2.78px;"/>
        </g>
        <g transform="matrix(1.53081e-17,-0.25,0.25,1.53081e-17,5.5,82.5)">
            <circle cx="70" cy="30" r="20" style="fill:none;stroke:rgb(0,255,87);stroke-width:2.78px;"/>
        </g>
        <g transform="matrix(1.53081e-17,-0.25,0.25,1.53081e-17,57.5,67.5)">
            <circle cx="70" cy="30" r="20" style="fill:none;stroke:rgb(255,160,0);stroke-width:2.78px;"/>
        </g>
        <g transform="matrix(1.53081e-17,-0.25,0.25,1.53081e-17,73.5,67.5)">
            <circle cx="70" cy="30" r="20" style="fill:none;stroke:rgb(0,255,87);stroke-width:2.78px;"/>
        </g>
        <g transform="matrix(1.53081e-17,-0.25,0.25,1.53081e-17,87.5,67.6394)">
            <circle cx="70" cy="30" r="20" style="fill:none;stroke:rgb(0,255,87);stroke-width:2.78px;"/>
        </g>
        <g transform="matrix(1.53081e-17,-0.25,0.25,1.53081e-17,79.5,52.5)">
            <circle cx="70" cy="30" r="20" style="fill:none;stroke:rgb(0,255,87);stroke-width:2.78px;"/>
        </g>
        <g transform="matrix(1.53081e-17,-0.25,0.25,1.53081e-17,57.5,30.5)">
            <circle cx="70" cy="30" r="20" style="fill:none;stroke:rgb(0,255,87);stroke-width:2.78px;"/>
        </g>
        <g transform="matrix(1.53081e-17,-0.25,0.25,1.53081e-17,42.5,82.5)">
            <circle cx="70" cy="30" r="20" style="fill:none;stroke:rgb(255,96,0);stroke-width:2.78px;"/>
        </g>
        <g transform="matrix(1.53081e-17,-0.25,0.25,1.53081e-17,42.5,98.5)">
            <circle cx="70" cy="30" r="20" style="fill:none;stroke:rgb(255,160,0);stroke-width:2.78px;"/>
        </g>
        <g transform="matrix(1.53081e-17,-0.25,0.25,1.53081e-17,42.5,112.5)">
            <circle cx="70" cy="30" r="20" style="fill:none;stroke:rgb(255,96,0);stroke-width:2.78px;"/>
        </g>
        <g transform="matrix(1.53081e-17,-0.25,0.25,1.53081e-17,57.5,104.5)">
            <circle cx="70" cy="30" r="20" style="fill:none;stroke:rgb(0,255,87);stroke-width:2.78px;"/>
        </g>
        <g transform="matrix(1.53081e-17,-0.25,0.25,1.53081e-17,42.5,52.5)">
            <circle cx="70" cy="30" r="20" style="fill:none;stroke:rgb(255,96,0);stroke-width:2.78px;"/>
        </g>
        <g transform="matrix(1.53081e-17,-0.25,0.25,1.53081e-17,42.5,36.5)">
            <circle cx="70" cy="30" r="20" style="fill:none;stroke:rgb(255,160,0);stroke-width:2.78px;"/>
        </g>
        <g transform="matrix(1.53081e-17,-0.25,0.25,1.53081e-17,42.5,22.5)">
            <circle cx="70" cy="30" r="20" style="fill:none;stroke:rgb(255,96,0);stroke-width:2.78px;"/>
        </g>
        <g transform="matrix(1.53081e-17,-0.25,0.25,1.53081e-17,27.5,30.5)">
            <circle cx="70" cy="30" r="20" style="fill:none;stroke:rgb(0,255,87);stroke-width:2.78px;"/>
        </g>
        <g transform="matrix(0.176777,-0.176777,0.176777,0.176777,10.7157,35.4645)">
            <circle cx="70" cy="30" r="20" style="fill:none;stroke:rgb(255,160,0);stroke-width:2.78px;"/>
        </g>
        <g transform="matrix(0.176777,-0.176777,0.176777,0.176777,0.32135,25.0701)">
            <circle cx="70" cy="30" r="20" style="fill:none;stroke:rgb(255,96,0);stroke-width:2.78px;"/>
        </g>
        <g transform="matrix(0.176777,-0.176777,0.176777,0.176777,-4.67669,41.072)">
            <circle cx="70" cy="30" r="20" style="fill:none;stroke:rgb(0,255,87);stroke-width:2.78px;"/>
        </g>
        <g transform="matrix(0.176777,-0.176777,0.176777,0.176777,53.9289,78.6777)">
            <circle cx="70" cy="30" r="20" style="fill:none;stroke:rgb(255,160,0);stroke-width:2.78px;"/>
        </g>
        <g transform="matrix(0.25,-2.08167e-17,-1.38778e-17,0.25,64.1066,75.1066)">
            <circle cx="70" cy="30" r="20" style="fill:none;stroke:rgb(255,96,0);stroke-width:2.78px;"/>
        </g>
        <g transform="matrix(0.176777,-0.176777,0.176777,0.176777,69.3233,73.6786)">
            <circle cx="70" cy="30" r="20" style="fill:none;stroke:rgb(0,255,87);stroke-width:2.78px;"/>
        </g>
        <g transform="matrix(0.176777,-0.176777,0.176777,0.176777,10.7157,78.6777)">
            <circle cx="70" cy="30" r="20" style="fill:none;stroke:rgb(255,160,0);stroke-width:2.78px;"/>
        </g>
        <g transform="matrix(0.176777,-0.176777,0.176777,0.176777,-0.284271,88.6777)">
            <circle cx="70" cy="30" r="20" style="fill:none;stroke:rgb(255,96,0);stroke-width:2.78px;"/>
        </g>
        <g transform="matrix(0.176777,-0.176777,0.176777,0.176777,17.3214,94.072)">
            <circle cx="70" cy="30" r="20" style="fill:none;stroke:rgb(0,255,87);stroke-width:2.78px;"/>
        </g>
        <g transform="matrix(0.176777,-0.176777,0.176777,0.176777,53.9289,35.4645)">
            <circle cx="70" cy="30" r="20" style="fill:none;stroke:rgb(255,160,0);stroke-width:2.78px;"/>
        </g>
        <g transform="matrix(0.176777,-0.176777,0.176777,0.176777,63.927,25.0472)">
            <circle cx="70" cy="30" r="20" style="fill:none;stroke:rgb(255,96,0);stroke-width:2.78px;"/>
        </g>
    </g>
</svg>
