<?xml version="1.0" encoding="UTF-8" standalone="no"?>
<!DOCTYPE svg PUBLIC "-//W3C//DTD SVG 1.1//EN" "http://www.w3.org/Graphics/SVG/1.1/DTD/svg11.dtd">
<svg width="100%" height="100%" viewBox="0 0 100 100" version="1.1" xmlns="http://www.w3.org/2000/svg" xmlns:xlink="http://www.w3.org/1999/xlink" xml:space="preserve" xmlns:serif="http://www.serif.com/" style="fill-rule:evenodd;clip-rule:evenodd;stroke-linecap:round;stroke-linejoin:round;stroke-miterlimit:1.5;">
    <g transform="matrix(0.983747,0.0499809,0.0277003,1.71916,1.67395,-24.4431)">
        <path d="M48.28,29.974L47.6,54.133" style="fill:none;stroke:rgb(255,96,0);stroke-width:0.96px;"/>
    </g>
    <g transform="matrix(0.983747,0.0499809,0.0277003,1.71916,1.67395,-24.4431)">
        <path d="M31.474,35.115L44.442,54.225" style="fill:none;stroke:rgb(255,160,0);stroke-width:0.96px;"/>
    </g>
    <g transform="matrix(0.983747,0.0499809,0.0277003,1.71916,1.67395,-24.4431)">
        <path d="M33.775,55.96L40.397,57.251" style="fill:none;stroke:rgb(0,255,87);stroke-width:0.96px;"/>
    </g>
    <g transform="matrix(0.983747,0.0499809,0.0277003,1.71916,1.67395,-24.4431)">
        <path d="M21.37,47.043L23.315,50.186" style="fill:none;stroke:rgb(0,255,87);stroke-width:0.96px;"/>
    </g>
    <g transform="matrix(0.983747,0.0499809,0.0277003,1.71916,1.67395,-24.4431)">
        <path d="M74.273,45.505L71.114,49.378" style="fill:none;stroke:rgb(0,255,87);stroke-width:0.96px;"/>
    </g>
    <g transform="matrix(0.983747,0.0499809,0.0277003,1.71916,1.67395,-24.4431)">
        <path d="M60.064,55.516L54.64,56.837" style="fill:none;stroke:rgb(0,255,87);stroke-width:0.96px;"/>
    </g>
    <g transform="matrix(0.375,0,0,0.375,23.75,10.3225)">
        <circle cx="70" cy="30" r="20" style="fill:none;stroke:rgb(255,96,0);stroke-width:3.7px;"/>
    </g>
    <g transform="matrix(2.29621e-17,-0.375,0.375,2.29621e-17,11.25,76.25)">
        <circle cx="70" cy="30" r="20" style="fill:none;stroke:rgb(0,255,87);stroke-width:3.7px;"/>
    </g>
    <g transform="matrix(2.29621e-17,-0.375,0.375,2.29621e-17,67.25,76.25)">
        <circle cx="70" cy="30" r="20" style="fill:none;stroke:rgb(0,255,87);stroke-width:3.7px;"/>
    </g>
    <g transform="matrix(0.27204,-0.258107,0.258107,0.27204,3.71544,39.9063)">
        <circle cx="70" cy="30" r="20" style="fill:none;stroke:rgb(255,160,0);stroke-width:3.7px;"/>
    </g>
    <g transform="matrix(0.27204,-0.258107,0.258107,0.27204,42.8052,80.5913)">
        <circle cx="70" cy="30" r="20" style="fill:none;stroke:rgb(255,160,0);stroke-width:3.7px;"/>
    </g>
    <g transform="matrix(0.260222,0.270017,-0.270017,0.260222,59.885,3.29211)">
        <circle cx="70" cy="30" r="20" style="fill:none;stroke:rgb(255,160,0);stroke-width:3.7px;"/>
    </g>
    <g transform="matrix(0.260222,0.270017,-0.270017,0.260222,19.3897,43.0801)">
        <circle cx="70" cy="30" r="20" style="fill:none;stroke:rgb(255,160,0);stroke-width:3.7px;"/>
    </g>
    <g transform="matrix(0.983747,0.0499809,0.0277003,1.71916,1.67395,-24.4431)">
        <path d="M65.453,33.837L50.759,54.042" style="fill:none;stroke:rgb(255,160,0);stroke-width:0.96px;"/>
    </g>
    <g transform="matrix(0.375,0,0,0.375,23.75,67.25)">
        <circle cx="70" cy="30" r="20" style="fill:none;stroke:rgb(255,96,0);stroke-width:3.7px;"/>
    </g>
</svg>
