<?xml version="1.0" encoding="UTF-8" standalone="no"?>
<!DOCTYPE svg PUBLIC "-//W3C//DTD SVG 1.1//EN" "http://www.w3.org/Graphics/SVG/1.1/DTD/svg11.dtd">
<svg width="100%" height="100%" viewBox="0 0 160 160" version="1.1" xmlns="http://www.w3.org/2000/svg" xmlns:xlink="http://www.w3.org/1999/xlink" xml:space="preserve" xmlns:serif="http://www.serif.com/" style="fill-rule:evenodd;clip-rule:evenodd;stroke-linecap:round;stroke-linejoin:round;stroke-miterlimit:1.5;">
    <g transform="matrix(1.17349,0,0,0.782912,-21.0309,11.1372)">
        <path d="M46.956,97.766L46.956,115.983L28.258,87.957L46.956,59.932L46.956,78.148L125.233,78.148L125.233,59.932L143.93,87.957L125.233,115.983L125.233,97.766L46.956,97.766Z" style="fill:rgb(255,166,0);stroke:rgb(255,166,0);stroke-width:10.03px;"/>
    </g>
    <g transform="matrix(7.18557e-17,1.17349,-0.782912,4.79395e-17,148.863,-21.0309)">
        <path d="M46.956,97.766L46.956,115.983L28.258,87.957L46.956,59.932L46.956,78.148L125.233,78.148L125.233,59.932L143.93,87.957L125.233,115.983L125.233,97.766L46.956,97.766Z" style="fill:rgb(255,166,0);stroke:rgb(255,166,0);stroke-width:10.03px;"/>
    </g>
</svg>
