<?xml version="1.0" encoding="UTF-8" standalone="no"?>
<!DOCTYPE svg PUBLIC "-//W3C//DTD SVG 1.1//EN" "http://www.w3.org/Graphics/SVG/1.1/DTD/svg11.dtd">
<svg width="100%" height="100%" viewBox="0 0 100 100" version="1.1" xmlns="http://www.w3.org/2000/svg" xmlns:xlink="http://www.w3.org/1999/xlink" xml:space="preserve" xmlns:serif="http://www.serif.com/" style="fill-rule:evenodd;clip-rule:evenodd;stroke-linecap:round;stroke-linejoin:round;stroke-miterlimit:1.5;">
    <g transform="matrix(2.07729,0,0,2.07729,-65.8695,-79.8743)">
        <path d="M63,50L74.258,56.5L74.258,69.5L63,76L51.742,69.5L51.742,56.5L63,50Z" style="fill:none;stroke:rgb(255,96,0);stroke-width:2.67px;"/>
    </g>
    <g transform="matrix(0.4222,0.4222,-0.707107,0.707107,69.8013,-1.15415)">
        <g transform="matrix(1.18427,-0.707107,1.18427,0.707107,-81.2969,50.1731)">
            <path d="M62.489,46.965C64.408,45.698 66.994,46.228 68.261,48.148C69.528,50.067 68.998,52.654 67.079,53.92C65.16,55.187 62.573,54.657 61.306,52.738C60.039,50.819 60.569,48.232 62.489,46.965ZM63.636,48.704C64.596,48.071 65.889,48.336 66.522,49.295C67.156,50.255 66.891,51.548 65.931,52.182C64.972,52.815 63.678,52.55 63.045,51.59C62.412,50.631 62.676,49.337 63.636,48.704Z" style="fill:none;stroke:rgb(255,96,0);stroke-width:4.17px;stroke-linejoin:miter;stroke-miterlimit:10;"/>
            <path d="M20,80C20,80 46.985,62.19 61.306,52.738" style="fill:none;stroke:rgb(255,96,0);stroke-width:4.17px;"/>
        </g>
    </g>
    <g transform="matrix(0.8986,-0.8986,0.707107,0.707107,-28.7469,73.7915)">
        <g transform="matrix(0.556421,0.707107,-0.556421,0.707107,57.0545,-31.8513)">
            <path d="M67.175,47.04C69.076,48.333 69.57,50.927 68.277,52.829C66.984,54.73 64.39,55.224 62.489,53.931C60.587,52.638 60.093,50.044 61.386,48.143C62.679,46.241 65.273,45.747 67.175,47.04ZM66.003,48.763C66.954,49.409 67.201,50.706 66.554,51.657C65.908,52.608 64.611,52.855 63.66,52.208C62.709,51.562 62.462,50.265 63.109,49.314C63.756,48.363 65.052,48.116 66.003,48.763Z" style="fill:none;stroke:rgb(255,96,0);stroke-width:4.17px;stroke-linejoin:miter;stroke-miterlimit:10;"/>
            <path d="M20,20C20,20 47.086,38.418 61.386,48.143" style="fill:none;stroke:rgb(255,96,0);stroke-width:4.17px;"/>
        </g>
    </g>
</svg>
