<?xml version="1.0" encoding="UTF-8" standalone="no"?>
<!DOCTYPE svg PUBLIC "-//W3C//DTD SVG 1.1//EN" "http://www.w3.org/Graphics/SVG/1.1/DTD/svg11.dtd">
<svg width="100%" height="100%" viewBox="0 0 100 100" version="1.1" xmlns="http://www.w3.org/2000/svg" xmlns:xlink="http://www.w3.org/1999/xlink" xml:space="preserve" xmlns:serif="http://www.serif.com/" style="fill-rule:evenodd;clip-rule:evenodd;stroke-linejoin:round;stroke-miterlimit:2;">
    <g transform="matrix(1.72,0,0,1.72,-79,-79)">
        <path d="M57.017,92.366C61.728,97.245 68.218,100 75,100C88.798,100 100,88.798 100,75C100,61.202 88.798,50 75,50C66.689,50 58.921,54.13 54.274,61.02L62.564,66.612C65.353,62.478 70.013,60 75,60C83.279,60 90,66.721 90,75C90,83.279 83.279,90 75,90C70.931,90 67.037,88.347 64.21,85.42L57.017,92.366Z" style="fill:rgb(219,187,4);"/>
    </g>
    <g transform="matrix(-0.838839,-0.54438,0.54438,-0.838839,17.8939,98.7903)">
        <path d="M33.5,40L52,61L15,61L33.5,40Z" style="fill:rgb(219,187,4);"/>
    </g>
</svg>
