<?xml version="1.0" encoding="UTF-8" standalone="no"?>
<!DOCTYPE svg PUBLIC "-//W3C//DTD SVG 1.1//EN" "http://www.w3.org/Graphics/SVG/1.1/DTD/svg11.dtd">
<svg width="100%" height="100%" viewBox="0 0 100 100" version="1.1" xmlns="http://www.w3.org/2000/svg" xmlns:xlink="http://www.w3.org/1999/xlink" xml:space="preserve" xmlns:serif="http://www.serif.com/" style="fill-rule:evenodd;clip-rule:evenodd;stroke-linecap:round;stroke-linejoin:round;stroke-miterlimit:1.5;">
    <g transform="matrix(1.15385,0,0,1.15385,-22.6923,-22.6923)">
        <path d="M63,50L74.258,56.5L74.258,69.5L63,76L51.742,69.5L51.742,56.5L63,50Z" style="fill:none;stroke:rgb(255,96,0);stroke-width:2.41px;"/>
    </g>
    <g transform="matrix(1.15385,0,0,1.15385,-38.0923,-49.6923)">
        <path d="M63,50L74.258,56.5L74.258,69.5L63,76L51.742,69.5L51.742,56.5L63,50Z" style="fill:none;stroke:rgb(255,96,0);stroke-width:3.01px;"/>
    </g>
    <g transform="matrix(1.15385,0,0,1.15385,-7.49231,-49.6923)">
        <path d="M63,50L74.258,56.5L74.258,69.5L63,76L51.742,69.5L51.742,56.5L63,50Z" style="fill:none;stroke:rgb(255,96,0);stroke-width:3.01px;"/>
    </g>
    <g transform="matrix(1.15385,0,0,1.15385,-53.6923,-22.6923)">
        <path d="M63,50L74.258,56.5L74.258,69.5L63,76L51.742,69.5L51.742,56.5L63,50Z" style="fill:none;stroke:rgb(255,96,0);stroke-width:3.01px;"/>
    </g>
    <g transform="matrix(1.15385,0,0,1.15385,-38.0923,4.30769)">
        <path d="M63,50L74.258,56.5L74.258,69.5L63,76L51.742,69.5L51.742,56.5L63,50Z" style="fill:none;stroke:rgb(255,96,0);stroke-width:3.01px;"/>
    </g>
    <g transform="matrix(1.15385,0,0,1.15385,-7.49231,4.30769)">
        <path d="M63,50L74.258,56.5L74.258,69.5L63,76L51.742,69.5L51.742,56.5L63,50Z" style="fill:none;stroke:rgb(255,96,0);stroke-width:3.01px;"/>
    </g>
    <g transform="matrix(1.15385,0,0,1.15385,8.30769,-22.6923)">
        <path d="M63,50L74.258,56.5L74.258,69.5L63,76L51.742,69.5L51.742,56.5L63,50Z" style="fill:none;stroke:rgb(255,96,0);stroke-width:3.01px;"/>
    </g>
</svg>
