<?xml version="1.0" encoding="UTF-8" standalone="no"?>
<!DOCTYPE svg PUBLIC "-//W3C//DTD SVG 1.1//EN" "http://www.w3.org/Graphics/SVG/1.1/DTD/svg11.dtd">
<svg width="100%" height="100%" viewBox="0 0 300 100" version="1.1" xmlns="http://www.w3.org/2000/svg" xmlns:xlink="http://www.w3.org/1999/xlink" xml:space="preserve" xmlns:serif="http://www.serif.com/" style="fill-rule:evenodd;clip-rule:evenodd;stroke-linejoin:round;stroke-miterlimit:2;">
    <path d="M164.253,81.848L109.018,78.577L162.064,70.919L136.628,51.316L168.384,66.123L171.505,27.119L171.391,66.455L197.519,68.641L183.693,77.506L164.253,81.848Z" style="fill:rgb(235,235,235);"/>
    <g transform="matrix(1,0,0,1,117.364,17.5946)">
        <path d="M164.253,81.848L136.809,65.581L162.064,70.919L145.825,25.324L169.984,68.522L164.529,33.452L168.098,76.307L164.253,81.848Z" style="fill:rgb(235,235,235);"/>
    </g>
    <g transform="matrix(1,0,0,1,53.7576,-7.89802)">
        <path d="M165.917,83.013L155.031,70.258L160.233,70.586L149.773,53.646L164.622,66.52L166.212,70.019L182.71,54.331L168.052,74.012L165.917,83.013Z" style="fill:rgb(235,235,235);"/>
    </g>
    <g transform="matrix(1,0,0,1,89.6983,-44.6708)">
        <path d="M149.137,88.127L162.622,69.938L170.905,64.421L185.7,52.585L172.444,65.592L167.272,68.296L178.799,65.865L166.66,71.493L149.137,88.127Z" style="fill:rgb(235,235,235);"/>
    </g>
    <g transform="matrix(1,0,0,1,-79.6892,8.90762)">
        <path d="M161.522,72.545L116.676,88.077L160.233,70.586L153.049,60.438L164.622,66.52L168.209,66.104L185.427,69.833L168.052,74.012L161.522,72.545Z" style="fill:rgb(235,235,235);"/>
    </g>
    <g transform="matrix(1,0,0,1,-73.0335,-19.2127)">
        <path d="M162.321,81.335L161.104,71.536L161.192,69.068L136.349,47.014L162.384,67.479L165.413,67.782L174.48,62.562L168.612,71.056L162.321,81.335Z" style="fill:rgb(235,235,235);"/>
    </g>
    <g>
        <g transform="matrix(1,0,0,1,214.266,-7.38848)">
            <circle cx="41.278" cy="32.654" r="10.382" style="fill:rgb(243,228,140);"/>
        </g>
        <g transform="matrix(1,0,0,1,44.3309,46.3691)">
            <circle cx="41.278" cy="32.654" r="10.382" style="fill:rgb(140,243,204);"/>
        </g>
        <g transform="matrix(0.680982,0,0,0.680982,63.1043,29.7802)">
            <circle cx="41.278" cy="32.654" r="10.382" style="fill:rgb(243,161,140);"/>
        </g>
        <g transform="matrix(0.453988,0,0,0.453988,36.4872,5.66404)">
            <circle cx="41.278" cy="32.654" r="10.382" style="fill:rgb(228,243,140);"/>
        </g>
        <g transform="matrix(0.300614,0,0,0.300614,61.99,-1.49317)">
            <circle cx="41.278" cy="32.654" r="10.382" style="fill:rgb(140,243,204);"/>
        </g>
        <g transform="matrix(0.300614,0,0,0.300614,44.9201,45.6402)">
            <circle cx="41.278" cy="32.654" r="10.382" style="fill:rgb(140,243,204);"/>
        </g>
        <g transform="matrix(0.484663,0,0,0.484663,90.8257,18.1018)">
            <circle cx="41.278" cy="32.654" r="10.382" style="fill:rgb(140,243,204);"/>
        </g>
        <g transform="matrix(1.2638,0,0,1.2638,167.39,24.3154)">
            <circle cx="41.278" cy="32.654" r="10.382" style="fill:rgb(182,243,140);"/>
        </g>
        <g transform="matrix(1.85117,0,0,1.85117,210.423,40.0246)">
            <circle cx="41.278" cy="32.654" r="10.382" style="fill:rgb(205,243,140);"/>
        </g>
        <g transform="matrix(0.601227,0,0,0.601227,147.606,-1.94646)">
            <circle cx="41.278" cy="32.654" r="10.382" style="fill:rgb(140,243,204);"/>
        </g>
        <g transform="matrix(0.312884,0,0,0.312884,268.234,-5.3333)">
            <circle cx="41.278" cy="32.654" r="10.382" style="fill:rgb(243,140,156);"/>
        </g>
        <g transform="matrix(0.312884,0,0,0.312884,261.355,8.9341)">
            <circle cx="41.278" cy="32.654" r="10.382" style="fill:rgb(243,174,140);"/>
        </g>
        <g transform="matrix(1.94479,0,0,1.94479,89.79,11.3141)">
            <circle cx="41.278" cy="32.654" r="10.382" style="fill:rgb(140,243,204);"/>
        </g>
        <g transform="matrix(0.300614,0,0,0.300614,6.19427,28.0607)">
            <circle cx="41.278" cy="32.654" r="10.382" style="fill:rgb(140,243,204);"/>
        </g>
        <g transform="matrix(0.300614,0,0,0.300614,-4.76106,47.4236)">
            <circle cx="41.278" cy="32.654" r="10.382" style="fill:rgb(140,243,204);"/>
        </g>
        <g transform="matrix(0.300614,0,0,0.300614,-0.684646,70.8629)">
            <circle cx="41.278" cy="32.654" r="10.382" style="fill:rgb(140,243,204);"/>
        </g>
        <g transform="matrix(0.300614,0,0,0.300614,9.76114,89.7163)">
            <circle cx="41.278" cy="32.654" r="10.382" style="fill:rgb(140,243,204);"/>
        </g>
    </g>
</svg>
