<?xml version="1.0" encoding="UTF-8" standalone="no"?>
<!DOCTYPE svg PUBLIC "-//W3C//DTD SVG 1.1//EN" "http://www.w3.org/Graphics/SVG/1.1/DTD/svg11.dtd">
<svg width="100%" height="100%" viewBox="0 0 120 100" version="1.1" xmlns="http://www.w3.org/2000/svg" xmlns:xlink="http://www.w3.org/1999/xlink" xml:space="preserve" xmlns:serif="http://www.serif.com/" style="fill-rule:evenodd;clip-rule:evenodd;stroke-linecap:round;stroke-linejoin:round;stroke-miterlimit:1.5;">
    <g transform="matrix(1.35751,0,0,1.35751,-38.9504,13.946)">
        <path d="M72.891,13.668L84.055,20.113L84.055,33.005L72.891,39.45L61.727,33.005L61.727,20.113L72.891,13.668Z" style="fill:none;stroke:rgb(255,96,0);stroke-width:1.47px;"/>
    </g>
    <g transform="matrix(1.35751,0,0,1.35751,-55.1268,-14.8031)">
        <path d="M72.891,13.668L84.055,20.113L84.055,33.005L72.891,39.45L61.727,33.005L61.727,20.113L72.891,13.668Z" style="fill:none;stroke:rgb(255,96,0);stroke-width:1.47px;"/>
    </g>
    <g transform="matrix(1.35751,0,0,1.35751,-22.0176,-14.8031)">
        <path d="M72.891,13.668L84.055,20.113L84.055,33.005L72.891,39.45L61.727,33.005L61.727,20.113L72.891,13.668Z" style="fill:none;stroke:rgb(255,96,0);stroke-width:1.47px;"/>
    </g>
    <g transform="matrix(1.35751,0,0,1.35751,-55.505,42.4516)">
        <path d="M72.891,13.668L84.055,20.113L84.055,33.005L72.891,39.45L61.727,33.005L61.727,20.113L72.891,13.668Z" style="fill:none;stroke:rgb(255,96,0);stroke-width:1.47px;"/>
    </g>
    <g transform="matrix(1.35751,0,0,1.35751,-22.3958,42.4516)">
        <path d="M72.891,13.668L84.055,20.113L84.055,33.005L72.891,39.45L61.727,33.005L61.727,20.113L72.891,13.668Z" style="fill:none;stroke:rgb(255,96,0);stroke-width:1.47px;"/>
    </g>
    <g transform="matrix(1.35751,0,0,1.35751,-72.4251,13.946)">
        <path d="M72.891,13.668L84.055,20.113L84.055,33.005L72.891,39.45L61.727,33.005L61.727,20.113L72.891,13.668Z" style="fill:none;stroke:rgb(255,96,0);stroke-width:1.47px;"/>
    </g>
    <g transform="matrix(1.35751,0,0,1.35751,-6.08484,13.946)">
        <path d="M72.891,13.668L84.055,20.113L84.055,33.005L72.891,39.45L61.727,33.005L61.727,20.113L72.891,13.668Z" style="fill:none;stroke:rgb(255,96,0);stroke-width:1.47px;"/>
    </g>
</svg>
